<svg width="1000" height="1000" viewBox="0 0 1000 1000" fill="none" xmlns="http://www.w3.org/2000/svg">
<path d="M314.098 351.92C325.618 351.92 335.788 354.26 344.608 358.94C353.608 363.44 360.628 370.46 365.668 380C370.888 389.36 373.498 401.42 373.498 416.18V499.34H331.378V422.66C331.378 410.96 328.948 402.32 324.088 396.74C319.228 391.16 312.388 388.37 303.568 388.37C297.448 388.37 291.958 389.81 287.098 392.69C282.238 395.39 278.458 399.53 275.758 405.11C273.058 410.69 271.708 417.8 271.708 426.44V499.34H229.588V422.66C229.588 410.96 227.158 402.32 222.298 396.74C217.618 391.16 210.868 388.37 202.048 388.37C195.928 388.37 190.438 389.81 185.578 392.69C180.718 395.39 176.938 399.53 174.238 405.11C171.538 410.69 170.188 417.8 170.188 426.44V499.34H128.068V354.08H168.298V393.77L160.738 382.16C165.778 372.26 172.888 364.79 182.068 359.75C191.428 354.53 202.048 351.92 213.928 351.92C227.248 351.92 238.858 355.34 248.758 362.18C258.838 368.84 265.498 379.1 268.738 392.96L253.888 388.91C258.748 377.57 266.488 368.57 277.108 361.91C287.908 355.25 300.238 351.92 314.098 351.92Z" fill="#9DBAEB"/>
<path d="M500.352 499.34V470.99L497.652 464.78V414.02C497.652 405.02 494.862 398 489.282 392.96C483.882 387.92 475.512 385.4 464.172 385.4C456.432 385.4 448.782 386.66 441.222 389.18C433.842 391.52 427.542 394.76 422.322 398.9L407.202 369.47C415.122 363.89 424.662 359.57 435.822 356.51C446.982 353.45 458.322 351.92 469.842 351.92C491.982 351.92 509.172 357.14 521.412 367.58C533.652 378.02 539.772 394.31 539.772 416.45V499.34H500.352ZM456.072 501.5C444.732 501.5 435.012 499.61 426.912 495.83C418.812 491.87 412.602 486.56 408.282 479.9C403.962 473.24 401.802 465.77 401.802 457.49C401.802 448.85 403.872 441.29 408.012 434.81C412.332 428.33 419.082 423.29 428.262 419.69C437.442 415.91 449.412 414.02 464.172 414.02H502.782V438.59H468.762C458.862 438.59 452.022 440.21 448.242 443.45C444.642 446.69 442.842 450.74 442.842 455.6C442.842 461 444.912 465.32 449.052 468.56C453.372 471.62 459.222 473.15 466.602 473.15C473.622 473.15 479.922 471.53 485.502 468.29C491.082 464.87 495.132 459.92 497.652 453.44L504.132 472.88C501.072 482.24 495.492 489.35 487.392 494.21C479.292 499.07 468.852 501.5 456.072 501.5Z" fill="#9DBAEB"/>
<path d="M612.723 469.64L613.803 418.34L681.573 354.08H731.793L666.723 420.23L644.853 438.05L612.723 469.64ZM577.893 499.34V299H620.013V499.34H577.893ZM686.163 499.34L637.023 438.32L663.483 405.65L737.193 499.34H686.163Z" fill="#9DBAEB"/>
<path d="M822.16 501.5C805.6 501.5 791.02 498.26 778.42 491.78C766 485.3 756.37 476.48 749.53 465.32C742.69 453.98 739.27 441.11 739.27 426.71C739.27 412.13 742.6 399.26 749.26 388.1C756.1 376.76 765.37 367.94 777.07 361.64C788.77 355.16 802 351.92 816.76 351.92C830.98 351.92 843.76 354.98 855.1 361.1C866.62 367.04 875.71 375.68 882.37 387.02C889.03 398.18 892.36 411.59 892.36 427.25C892.36 428.87 892.27 430.76 892.09 432.92C891.91 434.9 891.73 436.79 891.55 438.59H773.56V414.02H869.41L853.21 421.31C853.21 413.75 851.68 407.18 848.62 401.6C845.56 396.02 841.33 391.7 835.93 388.64C830.53 385.4 824.23 383.78 817.03 383.78C809.83 383.78 803.44 385.4 797.86 388.64C792.46 391.7 788.23 396.11 785.17 401.87C782.11 407.45 780.58 414.11 780.58 421.85V428.33C780.58 436.25 782.29 443.27 785.71 449.39C789.31 455.33 794.26 459.92 800.56 463.16C807.04 466.22 814.6 467.75 823.24 467.75C830.98 467.75 837.73 466.58 843.49 464.24C849.43 461.9 854.83 458.39 859.69 453.71L882.1 478.01C875.44 485.57 867.07 491.42 856.99 495.56C846.91 499.52 835.3 501.5 822.16 501.5Z" fill="#9DBAEB"/>
<path d="M133.19 701.84C125.99 701.84 119.78 699.41 114.56 694.55C109.52 689.51 107 683.12 107 675.38C107 667.64 109.52 661.43 114.56 656.75C119.78 651.89 125.99 649.46 133.19 649.46C140.57 649.46 146.78 651.89 151.82 656.75C156.86 661.43 159.38 667.64 159.38 675.38C159.38 683.12 156.86 689.51 151.82 694.55C146.78 699.41 140.57 701.84 133.19 701.84Z" fill="#9DBAEB"/>
<path d="M236.794 701.84C224.374 701.84 212.404 700.4 200.884 697.52C189.544 694.46 180.544 690.68 173.884 686.18L187.924 655.94C194.584 660.08 202.414 663.5 211.414 666.2C220.594 668.72 229.594 669.98 238.414 669.98C248.134 669.98 254.974 668.81 258.934 666.47C263.074 664.13 265.144 660.89 265.144 656.75C265.144 653.33 263.524 650.81 260.284 649.19C257.224 647.39 253.084 646.04 247.864 645.14C242.644 644.24 236.884 643.34 230.584 642.44C224.464 641.54 218.254 640.37 211.954 638.93C205.654 637.31 199.894 634.97 194.674 631.91C189.454 628.85 185.224 624.71 181.984 619.49C178.924 614.27 177.394 607.52 177.394 599.24C177.394 590.06 180.004 581.96 185.224 574.94C190.624 567.92 198.364 562.43 208.444 558.47C218.524 554.33 230.584 552.26 244.624 552.26C254.524 552.26 264.604 553.34 274.864 555.5C285.124 557.66 293.674 560.81 300.514 564.95L286.474 594.92C279.454 590.78 272.344 587.99 265.144 586.55C258.124 584.93 251.284 584.12 244.624 584.12C235.264 584.12 228.424 585.38 224.104 587.9C219.784 590.42 217.624 593.66 217.624 597.62C217.624 601.22 219.154 603.92 222.214 605.72C225.454 607.52 229.684 608.96 234.904 610.04C240.124 611.12 245.794 612.11 251.914 613.01C258.214 613.73 264.514 614.9 270.814 616.52C277.114 618.14 282.784 620.48 287.824 623.54C293.044 626.42 297.274 630.47 300.514 635.69C303.754 640.73 305.374 647.39 305.374 655.67C305.374 664.67 302.674 672.68 297.274 679.7C291.874 686.54 284.044 691.94 273.784 695.9C263.704 699.86 251.374 701.84 236.794 701.84Z" fill="#9DBAEB"/>
<path d="M419.652 552.26C431.172 552.26 441.432 554.6 450.432 559.28C459.612 563.78 466.812 570.8 472.032 580.34C477.252 589.7 479.862 601.76 479.862 616.52V699.68H437.742V623C437.742 611.3 435.132 602.66 429.912 597.08C424.872 591.5 417.672 588.71 408.312 588.71C401.652 588.71 395.622 590.15 390.222 593.03C385.002 595.73 380.862 599.96 377.802 605.72C374.922 611.48 373.482 618.86 373.482 627.86V699.68H331.362V499.34H373.482V594.65L364.032 582.5C369.252 572.78 376.722 565.31 386.442 560.09C396.162 554.87 407.232 552.26 419.652 552.26Z" fill="#9DBAEB"/>
</svg>
